<?xml version="1.0" encoding="UTF-8" standalone="no"?>
<!DOCTYPE svg PUBLIC "-//W3C//DTD SVG 1.1//EN"
 "http://www.w3.org/Graphics/SVG/1.1/DTD/svg11.dtd">
<!-- Generated by graphviz version 2.44.1 (20200629.0846)
 -->
<!-- Title: dependencies Pages: 1 -->
<svg width="757pt" height="284pt"
 viewBox="0.00 0.00 757.00 284.00" xmlns="http://www.w3.org/2000/svg" xmlns:xlink="http://www.w3.org/1999/xlink">
<g id="graph0" class="graph" transform="scale(1 1) rotate(0) translate(4 280)">
<title>dependencies</title>
<polygon fill="white" stroke="transparent" points="-4,4 -4,-280 753,-280 753,4 -4,4"/>
<text text-anchor="start" x="353.51" y="-42.4" font-family="sans-serif" font-weight="bold" font-size="14.00">Legend</text>
<polygon fill="#ffffb3" stroke="transparent" points="140.5,-10 140.5,-30 160.5,-30 160.5,-10 140.5,-10"/>
<text text-anchor="start" x="164.13" y="-15.4" font-family="sans-serif" font-size="14.00"> &#160;Declarations</text>
<polygon fill="#8dd3c7" stroke="transparent" points="253.5,-10 253.5,-30 273.5,-30 273.5,-10 253.5,-10"/>
<text text-anchor="start" x="277.23" y="-15.4" font-family="sans-serif" font-size="14.00"> &#160;Module</text>
<polygon fill="#80b1d3" stroke="transparent" points="339.5,-10 339.5,-30 359.5,-30 359.5,-10 339.5,-10"/>
<text text-anchor="start" x="363.28" y="-15.4" font-family="sans-serif" font-size="14.00"> &#160;Bootstrap</text>
<polygon fill="#fdb462" stroke="transparent" points="436.5,-10 436.5,-30 456.5,-30 456.5,-10 436.5,-10"/>
<text text-anchor="start" x="460.17" y="-15.4" font-family="sans-serif" font-size="14.00"> &#160;Providers</text>
<polygon fill="#fb8072" stroke="transparent" points="532.5,-10 532.5,-30 552.5,-30 552.5,-10 532.5,-10"/>
<text text-anchor="start" x="556.23" y="-15.4" font-family="sans-serif" font-size="14.00"> &#160;Exports</text>
<g id="clust1" class="cluster">
<title>cluster_AppModule</title>
<polygon fill="none" stroke="black" stroke-dasharray="1,5" points="8,-70 8,-268 741,-268 741,-70 8,-70"/>
</g>
<g id="clust2" class="cluster">
<title>cluster_AppModule_declarations</title>
<polygon fill="none" stroke="black" points="431,-78 431,-130 733,-130 733,-78 431,-78"/>
</g>
<g id="clust7" class="cluster">
<title>cluster_AppModule_bootstrap</title>
<polygon fill="none" stroke="black" points="370,-208 370,-260 494,-260 494,-208 370,-208"/>
</g>
<g id="clust6" class="cluster">
<title>cluster_AppModule_exports</title>
<polygon fill="none" stroke="black" points="180,-208 180,-260 362,-260 362,-208 180,-208"/>
</g>
<g id="clust5" class="cluster">
<title>cluster_AppModule_imports</title>
<polygon fill="none" stroke="black" points="16,-78 16,-130 423,-130 423,-78 16,-78"/>
</g>
<!-- AppComponent -->
<g id="node1" class="node">
<title>AppComponent</title>
<polygon fill="#ffffb3" stroke="black" points="724.94,-122 619.06,-122 619.06,-86 724.94,-86 724.94,-122"/>
<text text-anchor="middle" x="672" y="-99.8" font-family="Times,serif" font-size="14.00">AppComponent</text>
</g>
<!-- AppModule -->
<g id="node3" class="node">
<title>AppModule</title>
<polygon fill="#8dd3c7" stroke="black" points="392.66,-187 389.66,-191 368.66,-191 365.66,-187 309.34,-187 309.34,-151 392.66,-151 392.66,-187"/>
<text text-anchor="middle" x="351" y="-164.8" font-family="Times,serif" font-size="14.00">AppModule</text>
</g>
<!-- AppComponent&#45;&gt;AppModule -->
<g id="edge1" class="edge">
<title>AppComponent&#45;&gt;AppModule</title>
<path fill="none" stroke="black" d="M672,-122.28C672,-143.32 672,-175 672,-175 672,-175 402.97,-175 402.97,-175"/>
<polygon fill="black" stroke="black" points="402.97,-171.5 392.97,-175 402.97,-178.5 402.97,-171.5"/>
</g>
<!-- LayoutDefaultComponent -->
<g id="node2" class="node">
<title>LayoutDefaultComponent</title>
<polygon fill="#ffffb3" stroke="black" points="601.47,-122 438.53,-122 438.53,-86 601.47,-86 601.47,-122"/>
<text text-anchor="middle" x="520" y="-99.8" font-family="Times,serif" font-size="14.00">LayoutDefaultComponent</text>
</g>
<!-- LayoutDefaultComponent&#45;&gt;AppModule -->
<g id="edge2" class="edge">
<title>LayoutDefaultComponent&#45;&gt;AppModule</title>
<path fill="none" stroke="black" d="M462.49,-122.02C462.49,-139.37 462.49,-163 462.49,-163 462.49,-163 402.83,-163 402.83,-163"/>
<polygon fill="black" stroke="black" points="402.83,-159.5 392.83,-163 402.83,-166.5 402.83,-159.5"/>
</g>
<!-- LayoutDefaultComponent  -->
<g id="node7" class="node">
<title>LayoutDefaultComponent </title>
<polygon fill="#fb8072" stroke="black" points="354.47,-252 187.53,-252 187.53,-216 354.47,-216 354.47,-252"/>
<text text-anchor="middle" x="271" y="-229.8" font-family="Times,serif" font-size="14.00">LayoutDefaultComponent </text>
</g>
<!-- AppModule&#45;&gt;LayoutDefaultComponent  -->
<g id="edge6" class="edge">
<title>AppModule&#45;&gt;LayoutDefaultComponent </title>
<path fill="none" stroke="black" stroke-dasharray="5,2" d="M331.7,-187.11C331.7,-187.11 331.7,-205.99 331.7,-205.99"/>
<polygon fill="black" stroke="black" points="328.2,-205.99 331.7,-215.99 335.2,-205.99 328.2,-205.99"/>
</g>
<!-- AppComponent  -->
<g id="node8" class="node">
<title>AppComponent </title>
<polygon fill="#80b1d3" stroke="black" points="486.44,-252 377.56,-252 377.56,-216 486.44,-216 486.44,-252"/>
<text text-anchor="middle" x="432" y="-229.8" font-family="Times,serif" font-size="14.00">AppComponent </text>
</g>
<!-- AppModule&#45;&gt;AppComponent  -->
<g id="edge7" class="edge">
<title>AppModule&#45;&gt;AppComponent </title>
<path fill="none" stroke="black" stroke-dasharray="1,5" d="M385.18,-187.11C385.18,-187.11 385.18,-205.99 385.18,-205.99"/>
<polygon fill="black" stroke="black" points="381.68,-205.99 385.18,-215.99 388.68,-205.99 381.68,-205.99"/>
</g>
<!-- AppRoutingModule -->
<g id="node4" class="node">
<title>AppRoutingModule</title>
<polygon fill="#8dd3c7" stroke="black" points="415.27,-122 412.27,-126 391.27,-126 388.27,-122 286.73,-122 286.73,-86 415.27,-86 415.27,-122"/>
<text text-anchor="middle" x="351" y="-99.8" font-family="Times,serif" font-size="14.00">AppRoutingModule</text>
</g>
<!-- AppRoutingModule&#45;&gt;AppModule -->
<g id="edge3" class="edge">
<title>AppRoutingModule&#45;&gt;AppModule</title>
<path fill="none" stroke="black" d="M351,-122.11C351,-122.11 351,-140.99 351,-140.99"/>
<polygon fill="black" stroke="black" points="347.5,-140.99 351,-150.99 354.5,-140.99 347.5,-140.99"/>
</g>
<!-- ContainersModule -->
<g id="node5" class="node">
<title>ContainersModule</title>
<polygon fill="#8dd3c7" stroke="black" points="269.2,-122 266.2,-126 245.2,-126 242.2,-122 148.8,-122 148.8,-86 269.2,-86 269.2,-122"/>
<text text-anchor="middle" x="209" y="-99.8" font-family="Times,serif" font-size="14.00">ContainersModule</text>
</g>
<!-- ContainersModule&#45;&gt;AppModule -->
<g id="edge4" class="edge">
<title>ContainersModule&#45;&gt;AppModule</title>
<path fill="none" stroke="black" d="M228.43,-122.02C228.43,-139.37 228.43,-163 228.43,-163 228.43,-163 299.16,-163 299.16,-163"/>
<polygon fill="black" stroke="black" points="299.16,-166.5 309.16,-163 299.16,-159.5 299.16,-166.5"/>
</g>
<!-- ServicesModule -->
<g id="node6" class="node">
<title>ServicesModule</title>
<polygon fill="#8dd3c7" stroke="black" points="130.47,-122 127.47,-126 106.47,-126 103.47,-122 23.53,-122 23.53,-86 130.47,-86 130.47,-122"/>
<text text-anchor="middle" x="77" y="-99.8" font-family="Times,serif" font-size="14.00">ServicesModule</text>
</g>
<!-- ServicesModule&#45;&gt;AppModule -->
<g id="edge5" class="edge">
<title>ServicesModule&#45;&gt;AppModule</title>
<path fill="none" stroke="black" d="M77,-122.28C77,-143.32 77,-175 77,-175 77,-175 299.09,-175 299.09,-175"/>
<polygon fill="black" stroke="black" points="299.09,-178.5 309.09,-175 299.09,-171.5 299.09,-178.5"/>
</g>
</g>
</svg>
