<?xml version="1.0" encoding="UTF-8" standalone="no"?>
<!DOCTYPE svg PUBLIC "-//W3C//DTD SVG 1.1//EN"
 "http://www.w3.org/Graphics/SVG/1.1/DTD/svg11.dtd">
<!-- Generated by graphviz version 2.44.1 (20200629.0846)
 -->
<!-- Title: dependencies Pages: 1 -->
<svg width="1149pt" height="428pt"
 viewBox="0.00 0.00 1149.00 428.00" xmlns="http://www.w3.org/2000/svg" xmlns:xlink="http://www.w3.org/1999/xlink">
<g id="graph0" class="graph" transform="scale(1 1) rotate(0) translate(4 424)">
<title>dependencies</title>
<polygon fill="white" stroke="transparent" points="-4,4 -4,-424 1145,-424 1145,4 -4,4"/>
<text text-anchor="start" x="549.51" y="-42.4" font-family="sans-serif" font-weight="bold" font-size="14.00">Legend</text>
<polygon fill="#ffffb3" stroke="transparent" points="336.5,-10 336.5,-30 356.5,-30 356.5,-10 336.5,-10"/>
<text text-anchor="start" x="360.13" y="-15.4" font-family="sans-serif" font-size="14.00"> &#160;Declarations</text>
<polygon fill="#8dd3c7" stroke="transparent" points="449.5,-10 449.5,-30 469.5,-30 469.5,-10 449.5,-10"/>
<text text-anchor="start" x="473.23" y="-15.4" font-family="sans-serif" font-size="14.00"> &#160;Module</text>
<polygon fill="#80b1d3" stroke="transparent" points="535.5,-10 535.5,-30 555.5,-30 555.5,-10 535.5,-10"/>
<text text-anchor="start" x="559.28" y="-15.4" font-family="sans-serif" font-size="14.00"> &#160;Bootstrap</text>
<polygon fill="#fdb462" stroke="transparent" points="632.5,-10 632.5,-30 652.5,-30 652.5,-10 632.5,-10"/>
<text text-anchor="start" x="656.17" y="-15.4" font-family="sans-serif" font-size="14.00"> &#160;Providers</text>
<polygon fill="#fb8072" stroke="transparent" points="728.5,-10 728.5,-30 748.5,-30 748.5,-10 728.5,-10"/>
<text text-anchor="start" x="752.23" y="-15.4" font-family="sans-serif" font-size="14.00"> &#160;Exports</text>
<g id="clust1" class="cluster">
<title>cluster_AppModule</title>
<polygon fill="none" stroke="black" stroke-dasharray="1,5" points="198,-214 198,-412 931,-412 931,-214 198,-214"/>
</g>
<g id="clust2" class="cluster">
<title>cluster_AppModule_declarations</title>
<polygon fill="none" stroke="black" points="621,-222 621,-274 923,-274 923,-222 621,-222"/>
</g>
<g id="clust5" class="cluster">
<title>cluster_AppModule_imports</title>
<polygon fill="none" stroke="black" points="206,-222 206,-274 613,-274 613,-222 206,-222"/>
</g>
<g id="clust6" class="cluster">
<title>cluster_AppModule_exports</title>
<polygon fill="none" stroke="black" points="370,-352 370,-404 552,-404 552,-352 370,-352"/>
</g>
<g id="clust7" class="cluster">
<title>cluster_AppModule_bootstrap</title>
<polygon fill="none" stroke="black" points="560,-352 560,-404 684,-404 684,-352 560,-352"/>
</g>
<g id="clust15" class="cluster">
<title>cluster_ComponentsModule</title>
<polygon fill="none" stroke="black" stroke-dasharray="1,5" points="939,-70 939,-282 1133,-282 1133,-70 939,-70"/>
</g>
<g id="clust16" class="cluster">
<title>cluster_ComponentsModule_declarations</title>
<polygon fill="none" stroke="black" points="949,-78 949,-130 1123,-130 1123,-78 949,-78"/>
</g>
<g id="clust19" class="cluster">
<title>cluster_ComponentsModule_exports</title>
<polygon fill="none" stroke="black" points="947,-222 947,-274 1125,-274 1125,-222 947,-222"/>
</g>
<g id="clust22" class="cluster">
<title>cluster_ConDefaultModule</title>
<polygon fill="none" stroke="black" stroke-dasharray="1,5" points="8,-70 8,-282 190,-282 190,-70 8,-70"/>
</g>
<g id="clust23" class="cluster">
<title>cluster_ConDefaultModule_declarations</title>
<polygon fill="none" stroke="black" points="19,-78 19,-130 181,-130 181,-78 19,-78"/>
</g>
<g id="clust26" class="cluster">
<title>cluster_ConDefaultModule_exports</title>
<polygon fill="none" stroke="black" points="16,-222 16,-274 182,-274 182,-222 16,-222"/>
</g>
<g id="clust29" class="cluster">
<title>cluster_ContainersModule</title>
<polygon fill="none" stroke="black" stroke-dasharray="1,5" points="331,-138 331,-206 467,-206 467,-138 331,-138"/>
</g>
<g id="clust31" class="cluster">
<title>cluster_ContainersModule_imports</title>
<polygon fill="none" stroke="black" points="339,-146 339,-198 459,-198 459,-146 339,-146"/>
</g>
<!-- AppComponent -->
<g id="node1" class="node">
<title>AppComponent</title>
<polygon fill="#ffffb3" stroke="black" points="914.94,-266 809.06,-266 809.06,-230 914.94,-230 914.94,-266"/>
<text text-anchor="middle" x="862" y="-243.8" font-family="Times,serif" font-size="14.00">AppComponent</text>
</g>
<!-- AppModule -->
<g id="node3" class="node">
<title>AppModule</title>
<polygon fill="#8dd3c7" stroke="black" points="582.66,-331 579.66,-335 558.66,-335 555.66,-331 499.34,-331 499.34,-295 582.66,-295 582.66,-331"/>
<text text-anchor="middle" x="541" y="-308.8" font-family="Times,serif" font-size="14.00">AppModule</text>
</g>
<!-- AppComponent&#45;&gt;AppModule -->
<g id="edge1" class="edge">
<title>AppComponent&#45;&gt;AppModule</title>
<path fill="none" stroke="black" d="M862,-266.28C862,-287.32 862,-319 862,-319 862,-319 592.97,-319 592.97,-319"/>
<polygon fill="black" stroke="black" points="592.97,-315.5 582.97,-319 592.97,-322.5 592.97,-315.5"/>
</g>
<!-- LayoutDefaultComponent -->
<g id="node2" class="node">
<title>LayoutDefaultComponent</title>
<polygon fill="#ffffb3" stroke="black" points="791.47,-266 628.53,-266 628.53,-230 791.47,-230 791.47,-266"/>
<text text-anchor="middle" x="710" y="-243.8" font-family="Times,serif" font-size="14.00">LayoutDefaultComponent</text>
</g>
<!-- LayoutDefaultComponent&#45;&gt;AppModule -->
<g id="edge2" class="edge">
<title>LayoutDefaultComponent&#45;&gt;AppModule</title>
<path fill="none" stroke="black" d="M652.49,-266.02C652.49,-283.37 652.49,-307 652.49,-307 652.49,-307 592.83,-307 592.83,-307"/>
<polygon fill="black" stroke="black" points="592.83,-303.5 582.83,-307 592.83,-310.5 592.83,-303.5"/>
</g>
<!-- LayoutDefaultComponent  -->
<g id="node7" class="node">
<title>LayoutDefaultComponent </title>
<polygon fill="#fb8072" stroke="black" points="544.47,-396 377.53,-396 377.53,-360 544.47,-360 544.47,-396"/>
<text text-anchor="middle" x="461" y="-373.8" font-family="Times,serif" font-size="14.00">LayoutDefaultComponent </text>
</g>
<!-- AppModule&#45;&gt;LayoutDefaultComponent  -->
<g id="edge6" class="edge">
<title>AppModule&#45;&gt;LayoutDefaultComponent </title>
<path fill="none" stroke="black" stroke-dasharray="5,2" d="M521.7,-331.11C521.7,-331.11 521.7,-349.99 521.7,-349.99"/>
<polygon fill="black" stroke="black" points="518.2,-349.99 521.7,-359.99 525.2,-349.99 518.2,-349.99"/>
</g>
<!-- AppComponent  -->
<g id="node8" class="node">
<title>AppComponent </title>
<polygon fill="#80b1d3" stroke="black" points="676.44,-396 567.56,-396 567.56,-360 676.44,-360 676.44,-396"/>
<text text-anchor="middle" x="622" y="-373.8" font-family="Times,serif" font-size="14.00">AppComponent </text>
</g>
<!-- AppModule&#45;&gt;AppComponent  -->
<g id="edge7" class="edge">
<title>AppModule&#45;&gt;AppComponent </title>
<path fill="none" stroke="black" stroke-dasharray="1,5" d="M575.18,-331.11C575.18,-331.11 575.18,-349.99 575.18,-349.99"/>
<polygon fill="black" stroke="black" points="571.68,-349.99 575.18,-359.99 578.68,-349.99 571.68,-349.99"/>
</g>
<!-- AppRoutingModule -->
<g id="node4" class="node">
<title>AppRoutingModule</title>
<polygon fill="#8dd3c7" stroke="black" points="605.27,-266 602.27,-270 581.27,-270 578.27,-266 476.73,-266 476.73,-230 605.27,-230 605.27,-266"/>
<text text-anchor="middle" x="541" y="-243.8" font-family="Times,serif" font-size="14.00">AppRoutingModule</text>
</g>
<!-- AppRoutingModule&#45;&gt;AppModule -->
<g id="edge3" class="edge">
<title>AppRoutingModule&#45;&gt;AppModule</title>
<path fill="none" stroke="black" d="M541,-266.11C541,-266.11 541,-284.99 541,-284.99"/>
<polygon fill="black" stroke="black" points="537.5,-284.99 541,-294.99 544.5,-284.99 537.5,-284.99"/>
</g>
<!-- ContainersModule -->
<g id="node5" class="node">
<title>ContainersModule</title>
<polygon fill="#8dd3c7" stroke="black" points="459.2,-266 456.2,-270 435.2,-270 432.2,-266 338.8,-266 338.8,-230 459.2,-230 459.2,-266"/>
<text text-anchor="middle" x="399" y="-243.8" font-family="Times,serif" font-size="14.00">ContainersModule</text>
</g>
<!-- ContainersModule&#45;&gt;AppModule -->
<g id="edge4" class="edge">
<title>ContainersModule&#45;&gt;AppModule</title>
<path fill="none" stroke="black" d="M418.43,-266.02C418.43,-283.37 418.43,-307 418.43,-307 418.43,-307 489.16,-307 489.16,-307"/>
<polygon fill="black" stroke="black" points="489.16,-310.5 499.16,-307 489.16,-303.5 489.16,-310.5"/>
</g>
<!-- ServicesModule -->
<g id="node6" class="node">
<title>ServicesModule</title>
<polygon fill="#8dd3c7" stroke="black" points="320.47,-266 317.47,-270 296.47,-270 293.47,-266 213.53,-266 213.53,-230 320.47,-230 320.47,-266"/>
<text text-anchor="middle" x="267" y="-243.8" font-family="Times,serif" font-size="14.00">ServicesModule</text>
</g>
<!-- ServicesModule&#45;&gt;AppModule -->
<g id="edge5" class="edge">
<title>ServicesModule&#45;&gt;AppModule</title>
<path fill="none" stroke="black" d="M267,-266.28C267,-287.32 267,-319 267,-319 267,-319 489.09,-319 489.09,-319"/>
<polygon fill="black" stroke="black" points="489.09,-322.5 499.09,-319 489.09,-315.5 489.09,-322.5"/>
</g>
<!-- CompDefaultComponent -->
<g id="node9" class="node">
<title>CompDefaultComponent</title>
<polygon fill="#ffffb3" stroke="black" points="1114.54,-122 957.46,-122 957.46,-86 1114.54,-86 1114.54,-122"/>
<text text-anchor="middle" x="1036" y="-99.8" font-family="Times,serif" font-size="14.00">CompDefaultComponent</text>
</g>
<!-- ComponentsModule -->
<g id="node10" class="node">
<title>ComponentsModule</title>
<polygon fill="#8dd3c7" stroke="black" points="1101.33,-190 1098.33,-194 1077.33,-194 1074.33,-190 970.67,-190 970.67,-154 1101.33,-154 1101.33,-190"/>
<text text-anchor="middle" x="1036" y="-167.8" font-family="Times,serif" font-size="14.00">ComponentsModule</text>
</g>
<!-- CompDefaultComponent&#45;&gt;ComponentsModule -->
<g id="edge8" class="edge">
<title>CompDefaultComponent&#45;&gt;ComponentsModule</title>
<path fill="none" stroke="black" d="M1036,-122.22C1036,-122.22 1036,-143.73 1036,-143.73"/>
<polygon fill="black" stroke="black" points="1032.5,-143.73 1036,-153.73 1039.5,-143.73 1032.5,-143.73"/>
</g>
<!-- CompDefaultComponent  -->
<g id="node11" class="node">
<title>CompDefaultComponent </title>
<polygon fill="#fb8072" stroke="black" points="1116.54,-266 955.46,-266 955.46,-230 1116.54,-230 1116.54,-266"/>
<text text-anchor="middle" x="1036" y="-243.8" font-family="Times,serif" font-size="14.00">CompDefaultComponent </text>
</g>
<!-- ComponentsModule&#45;&gt;CompDefaultComponent  -->
<g id="edge9" class="edge">
<title>ComponentsModule&#45;&gt;CompDefaultComponent </title>
<path fill="none" stroke="black" stroke-dasharray="5,2" d="M1036,-190.01C1036,-190.01 1036,-219.85 1036,-219.85"/>
<polygon fill="black" stroke="black" points="1032.5,-219.85 1036,-229.85 1039.5,-219.85 1032.5,-219.85"/>
</g>
<!-- ConDefaultComponent -->
<g id="node12" class="node">
<title>ConDefaultComponent</title>
<polygon fill="#ffffb3" stroke="black" points="173.15,-122 26.85,-122 26.85,-86 173.15,-86 173.15,-122"/>
<text text-anchor="middle" x="100" y="-99.8" font-family="Times,serif" font-size="14.00">ConDefaultComponent</text>
</g>
<!-- ConDefaultModule -->
<g id="node13" class="node">
<title>ConDefaultModule</title>
<polygon fill="#8dd3c7" stroke="black" points="162.36,-190 159.36,-194 138.36,-194 135.36,-190 37.64,-190 37.64,-154 162.36,-154 162.36,-190"/>
<text text-anchor="middle" x="100" y="-167.8" font-family="Times,serif" font-size="14.00">ConDefaultModule</text>
</g>
<!-- ConDefaultComponent&#45;&gt;ConDefaultModule -->
<g id="edge10" class="edge">
<title>ConDefaultComponent&#45;&gt;ConDefaultModule</title>
<path fill="none" stroke="black" d="M100,-122.22C100,-122.22 100,-143.73 100,-143.73"/>
<polygon fill="black" stroke="black" points="96.5,-143.73 100,-153.73 103.5,-143.73 96.5,-143.73"/>
</g>
<!-- ConDefaultModule&#45;&gt;ContainersModule -->
<g id="edge12" class="edge">
<title>ConDefaultModule&#45;&gt;ContainersModule</title>
<path fill="none" stroke="black" d="M162.52,-172C234.46,-172 342.79,-172 342.79,-172 342.79,-172 342.79,-219.99 342.79,-219.99"/>
<polygon fill="black" stroke="black" points="339.29,-219.99 342.79,-229.99 346.29,-219.99 339.29,-219.99"/>
</g>
<!-- ConDefaultComponent  -->
<g id="node14" class="node">
<title>ConDefaultComponent </title>
<polygon fill="#fb8072" stroke="black" points="174.15,-266 23.85,-266 23.85,-230 174.15,-230 174.15,-266"/>
<text text-anchor="middle" x="99" y="-243.8" font-family="Times,serif" font-size="14.00">ConDefaultComponent </text>
</g>
<!-- ConDefaultModule&#45;&gt;ConDefaultComponent  -->
<g id="edge11" class="edge">
<title>ConDefaultModule&#45;&gt;ConDefaultComponent </title>
<path fill="none" stroke="black" stroke-dasharray="5,2" d="M100,-190.01C100,-190.01 100,-219.85 100,-219.85"/>
<polygon fill="black" stroke="black" points="96.5,-219.85 100,-229.85 103.5,-219.85 96.5,-219.85"/>
</g>
<!-- LayoutsModule -->
<g id="node15" class="node">
<title>LayoutsModule</title>
<polygon fill="#8dd3c7" stroke="black" points="451.15,-190 448.15,-194 427.15,-194 424.15,-190 346.85,-190 346.85,-154 451.15,-154 451.15,-190"/>
<text text-anchor="middle" x="399" y="-167.8" font-family="Times,serif" font-size="14.00">LayoutsModule</text>
</g>
<!-- LayoutsModule&#45;&gt;ContainersModule -->
<g id="edge13" class="edge">
<title>LayoutsModule&#45;&gt;ContainersModule</title>
<path fill="none" stroke="black" d="M399,-190.01C399,-190.01 399,-219.85 399,-219.85"/>
<polygon fill="black" stroke="black" points="395.5,-219.85 399,-229.85 402.5,-219.85 395.5,-219.85"/>
</g>
</g>
</svg>
